#!OML:ASF H:\Dans Jumps\Project 1\Capture day 1\Session 1\subject.ASF
:FULLY-SPECIFIED
:DEGREES
223
root 0.414543 15.352 -15.9926 18.1994 -1.16917 -2.0727
lowerback 16.2193 0.206439 -0.414677
upperback 4.57548 0.310577 2.10715
thorax -4.23032 0.148721 2.3985
lowerneck -18.7186 0.62813 -1.62778
upperneck 13.479 1.29479 -0.0680418
head 7.18848 0.526198 0.389545
rclavicle -5.46658e-015 2.64384e-014
rhumerus -28.5148 -13.3794 -76.0104
rradius 26.2803
rwrist 27.5927
rhand -19.7978 -25.6427
rfingers 7.12502
rthumb 6.53498 -55.5219
lclavicle -5.46658e-015 2.64384e-014
lhumerus -27.7705 -2.13935 85.2689
lradius 21.8711
lwrist 14.4834
lhand -29.4918 -6.78848
lfingers 7.12502
lthumb -2.82671 23.1725
rfemur -58.7935 -1.85741 20.8499
rtibia 67.0023
rfoot -25.8274 -7.51538
rtoes 0.617322
lfemur -58.338 8.97349 -20.6683
ltibia 66.9338
lfoot -22.4056 13.2725
ltoes -10.1074
224
root 0.409421 15.2611 -16.0319 18.7251 -1.14795 -2.07801
lowerback 16.5839 0.224776 -0.503791
upperback 4.55107 0.323685 2.12333
thorax -4.45225 0.157228 2.46591
lowerneck -18.9644 0.627376 -1.59608
upperneck 13.0718 1.29388 -0.109238
head 7.09656 0.526642 0.37021
rclavicle 4.96962e-016 1.19271e-015
rhumerus -29.0829 -13.4115 -75.6802
rradius 26.2735
rwrist 27.5614
rhand -19.6821 -25.606
rfingers 7.12502
rthumb 6.64667 -55.4816
lclavicle 4.96962e-016 1.19271e-015
lhumerus -28.354 -1.92319 85.0969
lradius 21.6745
lwrist 14.5839
lhand -29.5632 -6.88596
lfingers 7.12502
lthumb -2.89563 23.0741
rfemur -60.2522 -1.81281 20.8959
rtibia 68.2024
rfoot -26.0723 -7.72561
rtoes 0.452522
lfemur -59.8067 8.92823 -20.7528
ltibia 68.1381
lfoot -22.6101 13.4446
ltoes -10.2378
225
root 0.404013 15.1684 -16.0707 19.2569 -1.12086 -2.0771
lowerback 16.9603 0.244756 -0.598605
upperback 4.51995 0.337554 2.14121
thorax -4.68763 0.166545 2.53842
lowerneck -19.2222 0.623741 -1.56651
upperneck 12.6808 1.28969 -0.150355
head 7.01188 0.52521 0.351043
rclavicle 2.78299e-015 1.88845e-014
rhumerus -29.6736 -13.4483 -75.3359
rradius 26.2699
rwrist 27.548
rhand -19.5631 -25.5677
rfingers 7.12502
rthumb 6.76161 -55.4397
lclavicle 2.78299e-015 1.88845e-014
lhumerus -28.9481 -1.71671 84.9261
lradius 21.4598
lwrist 14.6019
lhand -29.5816 -6.91311
lfingers 7.12502
lthumb -2.91337 23.0467
rfemur -61.7227 -1.78329 20.9396
rtibia 69.405
rfoot -26.3122 -7.93058
rtoes 0.297061
lfemur -61.2854 8.87652 -20.8416
ltibia 69.3426
lfoot -22.8168 13.6125
ltoes -10.3662
226
root 0.398117 15.0732 -16.1095 19.7981 -1.07978 -2.0689
lowerback 17.3502 0.262432 -0.697133
upperback 4.48022 0.347322 2.16062
thorax -4.93909 0.174388 2.6158
lowerneck -19.485 0.61367 -1.55181
upperneck 12.2981 1.27773 -0.173881
head 6.93045 0.520853 0.339229
rclavicle -4.07509e-015 -9.34288e-015
rhumerus -30.2852 -13.4853 -74.9823
rradius 26.2722
rwrist 27.5434
rhand -19.4322 -25.5345
rfingers 7.12502
rthumb 6.88798 -55.4024
lclavicle -4.07509e-015 -9.34288e-015
lhumerus -29.5535 -1.52168 84.7547
lradius 21.2273
lwrist 14.5385
lhand -29.5606 -6.90124
lfingers 7.12502
lthumb -2.89307 23.0589
rfemur -63.2119 -1.7714 20.9822
rtibia 70.6126
rfoot -26.5475 -8.13381
rtoes 0.148475
lfemur -62.7827 8.81251 -20.9341
ltibia 70.5491
lfoot -23.0231 13.7733
ltoes -10.4897
227
root 0.391841 14.9762 -16.1479 20.3401 -1.0336 -2.0601
lowerback 17.7638 0.280677 -0.795155
upperback 4.43138 0.357333 2.18043
thorax -5.21288 0.18295 2.69369
lowerneck -19.7447 0.600113 -1.54726
upperneck 11.9184 1.261 -0.181373
head 6.84922 0.515169 0.333758
rclavicle -8.94531e-016 7.95139e-016
rhumerus -30.9174 -13.5375 -74.6159
rradius 26.2693
rwrist 27.5474
rhand -19.3003 -25.4935
rfingers 7.12502
rthumb 7.01526 -55.3573
lclavicle -8.94531e-016 7.95139e-016
lhumerus -30.1819 -1.33006 84.5782
lradius 20.9858
lwrist 14.3871
lhand -29.4893 -6.84892
lfingers 7.12502
lthumb -2.82424 23.1121
rfemur -64.7066 -1.76784 21.0288
rtibia 71.8206
rfoot -26.7804 -8.33447
rtoes 0.00182515
lfemur -64.2845 8.74957 -21.0262
ltibia 71.7552
lfoot -23.2345 13.9264
ltoes -10.6019
228
root 0.385063 14.8775 -16.1858 20.8816 -0.983029 -2.05184
lowerback 18.2037 0.29997 -0.892223
upperback 4.37215 0.368191 2.19986
thorax -5.51183 0.192607 2.77092
lowerneck -19.9998 0.583424 -1.54764
upperneck 11.5424 1.23934 -0.176699
head 6.7682 0.507968 0.332481
rclavicle -7.95139e-016 -2.98177e-015
rhumerus -31.567 -13.6226 -74.2316
rradius 26.2436
rwrist 27.5856
rhand -19.1847 -25.4225
rfingers 7.12502
rthumb 7.12686 -55.2825
lclavicle -7.95139e-016 -2.98177e-015
lhumerus -30.8392 -1.13631 84.3905
lradius 20.7453
lwrist 14.165
lhand -29.3344 -6.70496
lfingers 7.12502
lthumb -2.67465 23.258
rfemur -66.204 -1.77039 21.0809
rtibia 73.0271
rfoot -27.0137 -8.53285
rtoes -0.15258
lfemur -65.7893 8.69096 -21.1175
ltibia 72.9587
lfoot -23.449 14.0664
ltoes -10.6962
229
root 0.377714 14.7776 -16.2232 21.4147 -0.933056 -2.04466
lowerback 18.6718 0.322521 -0.990609
upperback 4.30692 0.382121 2.21802
thorax -5.8324 0.204428 2.84735
lowerneck -20.2515 0.564432 -1.54692
upperneck 11.1705 1.21345 -0.166647
head 6.68783 0.499217 0.332302
rclavicle 1.05356e-014 7.95139e-015
rhumerus -32.2316 -13.739 -73.8312
rradius 26.1965
rwrist 27.6439
rhand -19.0704 -25.3419
rfingers 7.12502
rthumb 7.23722 -55.1981
lclavicle 1.05356e-014 7.95139e-015
lhumerus -31.5304 -0.958173 84.1989
lradius 20.5024
lwrist 13.8944
lhand -29.1728 -6.5798
lfingers 7.12502
lthumb -2.51856 23.3851
rfemur -67.6899 -1.77166 21.1364
rtibia 74.2267
rfoot -27.2554 -8.72998
rtoes -0.31143
lfemur -67.285 8.6451 -21.2101
ltibia 74.1543
lfoot -23.6649 14.1956
ltoes -10.778
230
root 0.369709 14.6772 -16.2598 21.934 -0.88632 -2.04126
lowerback 19.1718 0.349989 -1.09272
upperback 4.23808 0.400798 2.23728
thorax -6.17429 0.21928 2.92647
lowerneck -20.5032 0.5467 -1.53932
upperneck 10.8058 1.18829 -0.161599
head 6.6097 0.490556 0.329498
rclavicle -8.94531e-015 -9.93923e-016
rhumerus -32.9044 -13.8838 -73.4121
rradius 26.1165
rwrist 27.7328
rhand -18.9742 -25.2497
rfingers 7.12502
rthumb 7.33005 -55.1028
lclavicle -8.94531e-015 -9.93923e-016
lhumerus -32.2549 -0.780895 83.9999
lradius 20.2509
lwrist 13.5963
lhand -29.0316 -6.51749
lfingers 7.12502
lthumb -2.38219 23.449
rfemur -69.1528 -1.76736 21.1979
rtibia 75.4148
rfoot -27.5093 -8.92735
rtoes -0.47576
lfemur -68.7607 8.61253 -21.2989
ltibia 75.338
lfoot -23.8816 14.3154
ltoes -10.8403
231
root 0.361 14.5762 -16.2957 22.4407 -0.842147 -2.04
lowerback 19.7003 0.382691 -1.20088
upperback 4.16557 0.424108 2.2591
thorax -6.5357 0.237195 3.01114
lowerneck -20.7564 0.528399 -1.52697
upperneck 10.4523 1.16251 -0.164999
head 6.53544 0.480873 0.323165
rclavicle 5.36719e-015 -6.36111e-015
rhumerus -33.5906 -14.0396 -72.9748
rradius 26.0143
rwrist 27.8487
rhand -18.8833 -25.1602
rfingers 7.12502
rthumb 7.41784 -55.0102
lclavicle 5.36719e-015 -6.36111e-015
lhumerus -33.0153 -0.612413 83.7996
lradius 19.9935
lwrist 13.3072
lhand -28.9316 -6.53984
lfingers 7.12502
lthumb -2.28562 23.4277
rfemur -70.5945 -1.75805 21.2643
rtibia 76.5917
rfoot -27.777 -9.12714
rtoes -0.622788
lfemur -70.2189 8.5927 -21.3863
ltibia 76.5096
lfoot -24.0972 14.4283
ltoes -10.8874
232
root 0.351602 14.4746 -16.3309 22.936 -0.798163 -2.04296
lowerback 20.2576 0.419763 -1.31404
upperback 4.08919 0.451215 2.2868
thorax -6.91709 0.257862 3.10457
lowerneck -21.0066 0.511473 -1.5115
upperneck 10.1058 1.1396 -0.180957
head 6.46289 0.471454 0.312596
rclavicle 5.1684e-015 -5.96354e-015
rhumerus -34.2888 -14.1955 -72.5171
rradius 25.8926
rwrist 28.001
rhand -18.7946 -25.0726
rfingers 7.12502
rthumb 7.50337 -54.9195
lclavicle 5.1684e-015 -5.96354e-015
lhumerus -33.8076 -0.44852 83.6004
lradius 19.7259
lwrist 13.056
lhand -28.8973 -6.63838
lfingers 7.12502
lthumb -2.25248 23.3295
rfemur -72.0174 -1.74413 21.3396
rtibia 77.7584
rfoot -28.0619 -9.33706
rtoes -0.764231
lfemur -71.6607 8.57894 -21.4661
ltibia 77.6709
lfoot -24.3121 14.5386
ltoes -10.9001
233
root 0.341625 14.3722 -16.3655 23.421 -0.75491 -2.05159
lowerback 20.8446 0.461777 -1.43125
upperback 4.00843 0.483047 2.32194
thorax -7.31968 0.281834 3.20771
lowerneck -21.2615 0.495755 -1.49542
upperneck 9.77017 1.12016 -0.209715
head 6.39451 0.462423 0.298228
rclavicle 1.2921e-015 -9.44227e-015
rhumerus -34.9984 -14.3498 -72.0374
rradius 25.7563
rwrist 28.1943
rhand -18.7048 -24.9853
rfingers 7.12502
rthumb 7.59009 -54.8291
lclavicle 1.2921e-015 -9.44227e-015
lhumerus -34.6237 -0.259211 83.3909
lradius 19.439
lwrist 12.8431
lhand -28.9183 -6.84228
lfingers 7.12502
lthumb -2.2728 23.1254
rfemur -73.4238 -1.72429 21.425
rtibia 78.9164
rfoot -28.3633 -9.56238
rtoes -0.89646
lfemur -73.0879 8.57286 -21.538
ltibia 78.8249
lfoot -24.534 14.6559
ltoes -10.8788
234
root 0.33114 14.2687 -16.3996 23.9026 -0.704697 -2.06683
lowerback 21.4589 0.505208 -1.54645
upperback 3.9221 0.516419 2.36582
thorax -7.74339 0.307582 3.3194
lowerneck -21.5215 0.480772 -1.48432
upperneck 9.44 1.10396 -0.244298
head 6.3285 0.454152 0.283176
rclavicle 9.93923e-017 -1.33186e-014
rhumerus -35.7148 -14.502 -71.5345
rradius 25.6075
rwrist 28.4342
rhand -18.5927 -24.8963
rfingers 7.12502
rthumb 7.69833 -54.7362
lclavicle 9.93923e-017 -1.33186e-014
lhumerus -35.4549 -0.0421883 83.1705
lradius 19.1307
lwrist 12.6724
lhand -28.9449 -7.02809
lfingers 7.12502
lthumb -2.29846 22.9393
rfemur -74.8258 -1.70137 21.522
rtibia 80.0683
rfoot -28.6757 -9.81149
rtoes -1.02532
lfemur -74.5141 8.56703 -21.6005
ltibia 79.9749
lfoot -24.7575 14.7913
ltoes -10.8436
